<?xml version="1.0" encoding="UTF-8"?>
<svg id="Layer_2" data-name="Layer 2" xmlns="http://www.w3.org/2000/svg" viewBox="0 0 2471.86 706.67">
  <defs>
    <style>
      .cls-1 {
        fill: #000;
        stroke-width: 0px;
      }
    </style>
  </defs>
  <g id="Layer_1-2" data-name="Layer 1">
    <g>
      <path class="cls-1" d="M666.5,334.57c21.46-55.34-23.44-76.89-58.45-78.59-83.97-4.06-152.75-1.69-152.75-1.69,0,0-50.82,293.36-50.82,293.36,18.89,2.43,37.99,3.73,57.01,4.61,36.66,1.69,74.03,1.6,110.27-4.81,15.73-2.78,31.68-6.79,45.89-14.27,24.98-13.14,43.41-44.94,39.99-73.36-2.68-22.31-17.18-40.72-37.5-49.7-14.19-6.27-29.12-11.14-43.99-15.51,0,0,72.6-14.25,90.35-60.05ZM564.29,495.7c-28.8,18.07-83.01,9.04-83.01,9.04l12.33-88.56c42.35-2.26,69.55,8.38,80.28,19.67,10.73,11.29,19.2,41.79-9.6,59.86ZM559.27,370.51c-16.29,5.4-34.52,6-52.01,5.48,0,0,10.03-80.22,10.03-80.25.17-1.33,21.85-1.93,23.68-2.02,11.83-.6,23.84-.79,35.44,1.92,4.18.98,8.34,2.36,11.88,4.79,12.24,8.4,13.4,28.53,7.75,40.97-6.55,14.43-22.25,24.29-36.77,29.11Z"/>
      <polygon class="cls-1" points="753.46 254.01 826.31 254.01 775.49 548.78 700.38 548.78 753.46 254.01"/>
      <path class="cls-1" d="M1039.18,246.81c-2.98.15-5.93.34-8.86.58-44.49,3.65-88.7,18.94-122.47,48.83-21.53,19.06-38.3,43.26-48.02,70.36-19.11,53.28-18.81,122.04,29.77,159.35,54.87,42.13,136.51,38.78,198.67,16.49,9.35-3.35,18.48-7.55,27.28-12.15,32.48-16.98,57.22-44.29,72.79-77.5,19.21-40.95,27.49-96.83,5.62-138.3-29.03-55.06-96.89-70.48-154.78-67.65ZM1101.32,465.4c-15.25,21.52-35.8,39.31-61.37,47.04-24.75,7.49-58.78,7.77-81.59-5.5-42.07-24.46-43.84-89.01-29.99-129.73,10.87-31.96,34.04-59.88,63.43-76.48,29.38-16.6,70.37-22.92,100.77-5.33,3.69,2.13,7.18,4.59,10.42,7.36,23.53,20.09,27.43,50.5,25.52,79.71-1.89,28.92-10.31,59.08-27.21,82.93Z"/>
      <path class="cls-1" d="M1747.54,246.81c-2.98.15-5.93.34-8.86.58-44.49,3.65-88.7,18.94-122.47,48.83-21.53,19.06-38.3,43.26-48.02,70.36-19.11,53.28-18.81,122.04,29.77,159.35,54.87,42.13,136.51,38.78,198.67,16.49,9.35-3.35,18.48-7.55,27.28-12.15,32.48-16.98,57.22-44.29,72.79-77.5,19.21-40.95,27.49-96.83,5.62-138.3-29.03-55.06-96.89-70.48-154.78-67.65ZM1809.68,465.4c-15.25,21.52-35.8,39.31-61.37,47.04-24.75,7.49-58.78,7.77-81.59-5.5-42.07-24.46-43.84-89.01-29.99-129.73,10.87-31.96,34.04-59.88,63.43-76.48,29.38-16.6,70.37-22.92,100.77-5.33,3.69,2.13,7.18,4.59,10.42,7.36,23.53,20.09,27.43,50.5,25.52,79.71-1.89,28.92-10.31,59.08-27.21,82.93Z"/>
      <polygon class="cls-1" points="1273.28 253.44 1336.8 253.44 1453.7 455.89 1488.43 253.44 1546.03 253.44 1496.9 547.37 1434.22 547.37 1311.39 341.54 1281.75 550.76 1224.99 550.76 1273.28 253.44"/>
      <polygon class="cls-1" points="1923.81 251.75 2232.14 251.75 2224.52 294.95 2105.93 294.95 2065.27 547.37 1992.43 547.37 2035.63 291.56 1915.34 291.56 1923.81 251.75"/>
      <polygon class="cls-1" points="2260.1 251.75 2471.86 251.75 2465.93 294.95 2320.71 294.95 2307.53 380.5 2423.58 380.5 2420.19 416.93 2297.37 416.93 2285.51 505.87 2439.67 505.87 2436.28 550.76 2210.12 550.76 2260.1 251.75"/>
      <path class="cls-1" d="M423.96,251.43c-17.35,8.61-38.18,12.84-56.38,20.02-56.55,22.3-127.92,53.04-151.37,114.32-19.07,49.83-1.45,105.65,25.36,149.06,55.99,90.64,169.74,143.14,271.98,101.38,43.19-17.64,82.71-44.27,115.12-77.84-5.97,6.2-8.82,16.64-13.79,23.7-14.2,20.2-31.49,38.61-50.84,53.95-36.33,28.8-76.28,53.74-121.46,65.73-46.63,12.37-98.99.27-140.24-23.3-42.34-24.19-81.96-63.68-109.6-103.63-28.38-41.03-43.53-89.35-38.09-139.39,5.77-53.04,42.91-95.07,85.23-124.36,47.38-32.79,110.05-60.36,168.33-60.83,5.24-.04,10.79-.4,15.73,1.2Z"/>
      <path class="cls-1" d="M643.06,257.68s-41.51-127.91-94.87-184.66S420.29-19.31,316.95,11.18,118.74,146.71,81.47,198.38C44.2,250.05-2.99,330.47.15,411.89c3.39,88.04,69.46,134.63,110.96,154.11,41.51,19.48,111.81,57.6,287.15,32.19,0,0,72-16.94,83.01-23.72,0,0-200.63,51.21-327.19-38.96-114.13-81.32-55.68-210.07-25.19-255.81s94.02-131.29,176.64-173.59c67.31-34.46,177.9-50.41,241.8,10.11,63.9,60.52,95.72,141.46,95.72,141.46Z"/>
    </g>
  </g>
</svg>